<svg width="1200" height="280" viewBox="0 0 1200 280" fill="none" xmlns="http://www.w3.org/2000/svg">
<defs><linearGradient id="bg" x1="30" y1="20" x2="1170" y2="260" gradientUnits="userSpaceOnUse"><stop stop-color="#121820"/><stop offset="1" stop-color="#0B1016"/></linearGradient><pattern id="grid" width="32" height="32" patternUnits="userSpaceOnUse"><path d="M32 0H0V32" stroke="#303943" stroke-opacity="0.2"/></pattern><filter id="shadow" x="-20%" y="-20%" width="140%" height="160%"><feDropShadow dx="0" dy="10" stdDeviation="12" flood-color="#000" flood-opacity="0.3"/></filter></defs>
<rect width="1200" height="280" rx="26" fill="url(#bg)"/><rect width="1200" height="280" rx="26" fill="url(#grid)"/><rect x="1" y="1" width="1198" height="278" rx="25" stroke="#303943"/>
<text x="42" y="39" fill="#759A8C" font-family="ui-monospace,monospace" font-size="11" letter-spacing="2">ENGINEERING RANGE / CAPABILITY MAP</text><text x="1158" y="39" text-anchor="end" fill="#7D8892" font-family="ui-monospace,monospace" font-size="10">PRODUCT · PLATFORM · DATA · DELIVERY</text><path d="M42 56H1158" stroke="#303943"/>
<g filter="url(#shadow)">
 <g transform="translate(42 79)"><rect width="264" height="158" rx="16" fill="#151D25" stroke="#35414B"/><circle cx="37" cy="37" r="19" fill="#73988A" fill-opacity="0.12" stroke="#73988A"/><rect x="27" y="29" width="20" height="15" rx="3" stroke="#73988A" stroke-width="2"/><path d="M27 34H47" stroke="#73988A"/><text x="68" y="34" fill="#F1EFE8" font-family="Inter,Segoe UI,Arial" font-size="17" font-weight="720">Product Engineering</text><text x="20" y="76" fill="#9BA5AE" font-family="Inter,Segoe UI,Arial" font-size="11.5">SaaS, dashboards, admin systems,</text><text x="20" y="95" fill="#9BA5AE" font-family="Inter,Segoe UI,Arial" font-size="11.5">responsive UI, SSR, SEO, UX.</text><rect x="20" y="116" width="52" height="20" rx="10" fill="#73988A" fill-opacity="0.13"/><text x="46" y="130" text-anchor="middle" fill="#BFD2CA" font-family="ui-monospace,monospace" font-size="7">NEXT.JS</text><rect x="78" y="116" width="48" height="20" rx="10" fill="#73988A" fill-opacity="0.13"/><text x="102" y="130" text-anchor="middle" fill="#BFD2CA" font-family="ui-monospace,monospace" font-size="7">REACT</text><rect x="132" y="116" width="67" height="20" rx="10" fill="#73988A" fill-opacity="0.13"/><text x="165.5" y="130" text-anchor="middle" fill="#BFD2CA" font-family="ui-monospace,monospace" font-size="7">TYPESCRIPT</text></g>
 <g transform="translate(326 79)"><rect width="264" height="158" rx="16" fill="#151D25" stroke="#35414B"/><circle cx="37" cy="37" r="19" fill="#73988A" fill-opacity="0.12" stroke="#73988A"/><rect x="29" y="24" width="16" height="26" rx="4" stroke="#73988A" stroke-width="2"/><path d="M34 46H40" stroke="#73988A" stroke-linecap="round"/><text x="68" y="34" fill="#F1EFE8" font-family="Inter,Segoe UI,Arial" font-size="17" font-weight="720">Mobile and TV</text><text x="20" y="76" fill="#9BA5AE" font-family="Inter,Segoe UI,Arial" font-size="11.5">Native modules, device APIs, media,</text><text x="20" y="95" fill="#9BA5AE" font-family="Inter,Segoe UI,Arial" font-size="11.5">remote UX, offline state, stores.</text><rect x="20" y="116" width="78" height="20" rx="10" fill="#73988A" fill-opacity="0.13"/><text x="59" y="130" text-anchor="middle" fill="#BFD2CA" font-family="ui-monospace,monospace" font-size="7">REACT NATIVE</text><rect x="104" y="116" width="52" height="20" rx="10" fill="#73988A" fill-opacity="0.13"/><text x="130" y="130" text-anchor="middle" fill="#BFD2CA" font-family="ui-monospace,monospace" font-size="7">TIZEN</text><rect x="162" y="116" width="56" height="20" rx="10" fill="#73988A" fill-opacity="0.13"/><text x="190" y="130" text-anchor="middle" fill="#BFD2CA" font-family="ui-monospace,monospace" font-size="7">WEBOS</text></g>
 <g transform="translate(610 79)"><rect width="264" height="158" rx="16" fill="#151D25" stroke="#35414B"/><circle cx="37" cy="37" r="19" fill="#B99A64" fill-opacity="0.12" stroke="#B99A64"/><ellipse cx="37" cy="29" rx="10" ry="5" stroke="#B99A64" stroke-width="2"/><path d="M27 29V43C27 46 31 49 37 49C43 49 47 46 47 43V29M27 36C27 39 31 42 37 42C43 42 47 39 47 36" stroke="#B99A64" stroke-width="2"/><text x="68" y="34" fill="#F1EFE8" font-family="Inter,Segoe UI,Arial" font-size="17" font-weight="720">Backend and Data</text><text x="20" y="76" fill="#9BA5AE" font-family="Inter,Segoe UI,Arial" font-size="11.5">APIs, auth, role systems, queues,</text><text x="20" y="95" fill="#9BA5AE" font-family="Inter,Segoe UI,Arial" font-size="11.5">providers, storage, data modeling.</text><rect x="20" y="116" width="45" height="20" rx="10" fill="#B99A64" fill-opacity="0.12"/><text x="42.5" y="130" text-anchor="middle" fill="#D8C5A1" font-family="ui-monospace,monospace" font-size="7">JAVA</text><rect x="71" y="116" width="72" height="20" rx="10" fill="#B99A64" fill-opacity="0.12"/><text x="107" y="130" text-anchor="middle" fill="#D8C5A1" font-family="ui-monospace,monospace" font-size="7">SPRING BOOT</text><rect x="149" y="116" width="69" height="20" rx="10" fill="#B99A64" fill-opacity="0.12"/><text x="183.5" y="130" text-anchor="middle" fill="#D8C5A1" font-family="ui-monospace,monospace" font-size="7">POSTGRESQL</text></g>
 <g transform="translate(894 79)"><rect width="264" height="158" rx="16" fill="#151D25" stroke="#35414B"/><circle cx="37" cy="37" r="19" fill="#B99A64" fill-opacity="0.12" stroke="#B99A64"/><circle cx="30" cy="37" r="5" stroke="#B99A64"/><circle cx="43" cy="29" r="4" stroke="#B99A64"/><circle cx="46" cy="44" r="4" stroke="#B99A64"/><path d="M34 34L39 31M35 40L42 43M44 33L45 40" stroke="#B99A64"/><text x="68" y="34" fill="#F1EFE8" font-family="Inter,Segoe UI,Arial" font-size="17" font-weight="720">AI and Delivery</text><text x="20" y="76" fill="#9BA5AE" font-family="Inter,Segoe UI,Arial" font-size="11.5">LLM features, evaluation, testing,</text><text x="20" y="95" fill="#9BA5AE" font-family="Inter,Segoe UI,Arial" font-size="11.5">CI, debugging, monitoring, release.</text><rect x="20" y="116" width="45" height="20" rx="10" fill="#B99A64" fill-opacity="0.12"/><text x="42.5" y="130" text-anchor="middle" fill="#D8C5A1" font-family="ui-monospace,monospace" font-size="7">GROQ</text><rect x="71" y="116" width="48" height="20" rx="10" fill="#B99A64" fill-opacity="0.12"/><text x="95" y="130" text-anchor="middle" fill="#D8C5A1" font-family="ui-monospace,monospace" font-size="7">LLAMA</text><rect x="125" y="116" width="62" height="20" rx="10" fill="#B99A64" fill-opacity="0.12"/><text x="156" y="130" text-anchor="middle" fill="#D8C5A1" font-family="ui-monospace,monospace" font-size="7">GITHUB CI</text></g>
</g>
<text x="42" y="260" fill="#7D8892" font-family="ui-monospace,monospace" font-size="9" letter-spacing="1.2">ONE DELIVERY MINDSET · MULTIPLE PRODUCT SURFACES</text>
</svg>