<svg width="1200" height="390" viewBox="0 0 1200 390" fill="none" xmlns="http://www.w3.org/2000/svg">
  <defs>
    <linearGradient id="background" x1="54" y1="20" x2="1146" y2="370" gradientUnits="userSpaceOnUse">
      <stop stop-color="#FBFAF6"/>
      <stop offset="1" stop-color="#F3F0E8"/>
    </linearGradient>
    <linearGradient id="accentLine" x1="62" y1="0" x2="1128" y2="0" gradientUnits="userSpaceOnUse">
      <stop stop-color="#3F6F62"/>
      <stop offset="0.72" stop-color="#3F6F62" stop-opacity="0.34"/>
      <stop offset="1" stop-color="#7B5D2F" stop-opacity="0"/>
    </linearGradient>
    <pattern id="grid" width="30" height="30" patternUnits="userSpaceOnUse">
      <path d="M30 0H0V30" stroke="#D5D1C7" stroke-opacity="0.58"/>
    </pattern>
    <filter id="softShadow" x="-20%" y="-20%" width="140%" height="140%">
      <feDropShadow dx="0" dy="12" stdDeviation="20" flood-color="#675F52" flood-opacity="0.12"/>
    </filter>
  </defs>

  <rect width="1200" height="390" rx="26" fill="url(#background)"/>
  <rect x="1" y="1" width="1198" height="388" rx="25" stroke="#D5D1C7"/>
  <rect width="1200" height="390" rx="26" fill="url(#grid)" opacity="0.64"/>

  <text x="52" y="38" fill="#3F6F62" font-family="ui-monospace, SFMono-Regular, Menlo, Monaco, Consolas, monospace" font-size="11" letter-spacing="2.2">ENGINEERING DOSSIER / PROFILE 2026</text>
  <text x="1148" y="38" text-anchor="end" fill="#59636D" font-family="ui-monospace, SFMono-Regular, Menlo, Monaco, Consolas, monospace" font-size="10" letter-spacing="1.6">LAHORE · PAKISTAN</text>
  <path d="M52 55H1148" stroke="#D5D1C7"/>

  <g transform="translate(58 84)">
    <text x="0" y="50" fill="#1F262D" font-family="Inter, Segoe UI, Arial, sans-serif" font-size="47" font-weight="760" letter-spacing="0.4">Abdullah Tariq</text>
    <text x="2" y="84" fill="#7B5D2F" font-family="ui-monospace, SFMono-Regular, Menlo, Monaco, Consolas, monospace" font-size="15" font-weight="700" letter-spacing="2.2">SOFTWARE DEVELOPER</text>
    <path d="M2 110H486" stroke="url(#accentLine)" stroke-width="2"/>
    <text x="2" y="147" fill="#53606A" font-family="Inter, Segoe UI, Arial, sans-serif" font-size="18">Product engineering across web, mobile, AI, backend,</text>
    <text x="2" y="174" fill="#53606A" font-family="Inter, Segoe UI, Arial, sans-serif" font-size="18">and television platforms.</text>

    <g transform="translate(2 207)">
      <rect width="328" height="38" rx="19" fill="#EEEAE0" stroke="#3F6F62" stroke-opacity="0.64"/>
      <circle cx="21" cy="19" r="5" fill="#3F6F62"/>
      <text x="38" y="24" fill="#294C42" font-family="ui-monospace, SFMono-Regular, Menlo, Monaco, Consolas, monospace" font-size="11" font-weight="700" letter-spacing="1.2">OPEN TO ENGINEERING OPPORTUNITIES</text>
    </g>
  </g>

  <g transform="translate(585 86)" opacity="0.9">
    <rect x="0" y="0" width="92" height="92" rx="18" fill="#EEEAE0" stroke="#D5D1C7" filter="url(#softShadow)"/>
    <path d="M27 63L46 27L65 63H55L51 54H41L37 63H27ZM44 47H49L46 38L44 47Z" fill="#3F6F62"/>
    <path d="M29 70H63" stroke="#7B5D2F" stroke-width="2" stroke-linecap="round"/>
    <path d="M46 -20V0M46 92V112M-20 46H0M92 46H112" stroke="#D5D1C7"/>
    <circle cx="46" cy="46" r="62" stroke="#D5D1C7" stroke-dasharray="3 8"/>
  </g>

  <g transform="translate(742 78)">
    <rect width="406" height="244" rx="18" fill="#EEEAE0" fill-opacity="0.94" stroke="#D5D1C7" filter="url(#softShadow)"/>
    <text x="24" y="32" fill="#59636D" font-family="ui-monospace, SFMono-Regular, Menlo, Monaco, Consolas, monospace" font-size="10" letter-spacing="2">CAPABILITY INDEX</text>
    <path d="M24 48H382" stroke="#D5D1C7"/>

    <g transform="translate(24 68)">
      <rect width="26" height="26" rx="6" fill="#F7F5EF" stroke="#3F6F62" stroke-opacity="0.78"/>
      <text x="13" y="18" text-anchor="middle" fill="#3F6F62" font-family="ui-monospace, SFMono-Regular, Menlo, Monaco, Consolas, monospace" font-size="10">01</text>
      <text x="42" y="12" fill="#1F262D" font-family="Inter, Segoe UI, Arial, sans-serif" font-size="14" font-weight="700">Product Systems</text>
      <text x="42" y="31" fill="#59636D" font-family="Inter, Segoe UI, Arial, sans-serif" font-size="11">Next.js · React · APIs · SaaS</text>
    </g>

    <g transform="translate(24 112)">
      <rect width="26" height="26" rx="6" fill="#F7F5EF" stroke="#3F6F62" stroke-opacity="0.78"/>
      <text x="13" y="18" text-anchor="middle" fill="#3F6F62" font-family="ui-monospace, SFMono-Regular, Menlo, Monaco, Consolas, monospace" font-size="10">02</text>
      <text x="42" y="12" fill="#1F262D" font-family="Inter, Segoe UI, Arial, sans-serif" font-size="14" font-weight="700">Mobile Platforms</text>
      <text x="42" y="31" fill="#59636D" font-family="Inter, Segoe UI, Arial, sans-serif" font-size="11">React Native · Expo · Android</text>
    </g>

    <g transform="translate(24 156)">
      <rect width="26" height="26" rx="6" fill="#F7F5EF" stroke="#7B5D2F" stroke-opacity="0.78"/>
      <text x="13" y="18" text-anchor="middle" fill="#7B5D2F" font-family="ui-monospace, SFMono-Regular, Menlo, Monaco, Consolas, monospace" font-size="10">03</text>
      <text x="42" y="12" fill="#1F262D" font-family="Inter, Segoe UI, Arial, sans-serif" font-size="14" font-weight="700">AI Integration</text>
      <text x="42" y="31" fill="#59636D" font-family="Inter, Segoe UI, Arial, sans-serif" font-size="11">Groq · Llama · Gemini · Evaluation</text>
    </g>

    <g transform="translate(24 200)">
      <rect width="26" height="26" rx="6" fill="#F7F5EF" stroke="#7B5D2F" stroke-opacity="0.78"/>
      <text x="13" y="18" text-anchor="middle" fill="#7B5D2F" font-family="ui-monospace, SFMono-Regular, Menlo, Monaco, Consolas, monospace" font-size="10">04</text>
      <text x="42" y="12" fill="#1F262D" font-family="Inter, Segoe UI, Arial, sans-serif" font-size="14" font-weight="700">Television Engineering</text>
      <text x="42" y="31" fill="#59636D" font-family="Inter, Segoe UI, Arial, sans-serif" font-size="11">Tizen · webOS · Android TV</text>
    </g>
  </g>

  <g transform="translate(52 342)">
    <path d="M0 0H1096" stroke="#D5D1C7"/>
    <text x="0" y="26" fill="#53606A" font-family="ui-monospace, SFMono-Regular, Menlo, Monaco, Consolas, monospace" font-size="10" letter-spacing="1">118 TOOLS</text>
    <circle cx="126" cy="22" r="2" fill="#7B5D2F"/>
    <text x="146" y="26" fill="#53606A" font-family="ui-monospace, SFMono-Regular, Menlo, Monaco, Consolas, monospace" font-size="10" letter-spacing="1">294+ TEMPLATES</text>
    <circle cx="298" cy="22" r="2" fill="#7B5D2F"/>
    <text x="318" y="26" fill="#53606A" font-family="ui-monospace, SFMono-Regular, Menlo, Monaco, Consolas, monospace" font-size="10" letter-spacing="1">230+ UTILITIES</text>
    <circle cx="456" cy="22" r="2" fill="#7B5D2F"/>
    <text x="476" y="26" fill="#53606A" font-family="ui-monospace, SFMono-Regular, Menlo, Monaco, Consolas, monospace" font-size="10" letter-spacing="1">BSCS IN PROGRESS</text>
    <text x="1096" y="26" text-anchor="end" fill="#3F6F62" font-family="ui-monospace, SFMono-Regular, Menlo, Monaco, Consolas, monospace" font-size="10" letter-spacing="1.2">BUILD · VERIFY · SHIP</text>
  </g>
</svg>