<svg width="1200" height="470" viewBox="0 0 1200 470" fill="none" xmlns="http://www.w3.org/2000/svg">
  <defs>
    <linearGradient id="bg" x1="35" y1="20" x2="1165" y2="455" gradientUnits="userSpaceOnUse">
      <stop stop-color="#FCFBF7"/>
      <stop offset="0.58" stop-color="#F4EFE6"/>
      <stop offset="1" stop-color="#EAE2D5"/>
    </linearGradient>
    <radialGradient id="glow" cx="0" cy="0" r="1" gradientTransform="translate(930 190) rotate(135) scale(410 320)">
      <stop stop-color="#5F8A78" stop-opacity="0.18"/>
      <stop offset="0.5" stop-color="#5F8A78" stop-opacity="0.05"/>
      <stop offset="1" stop-color="#5F8A78" stop-opacity="0"/>
    </radialGradient>
    <linearGradient id="metal" x1="0" y1="0" x2="1" y2="1">
      <stop stop-color="#66717B"/>
      <stop offset="0.45" stop-color="#313B44"/>
      <stop offset="1" stop-color="#141A20"/>
    </linearGradient>
    <linearGradient id="screen" x1="0" y1="0" x2="1" y2="1">
      <stop stop-color="#131D25"/>
      <stop offset="1" stop-color="#091016"/>
    </linearGradient>
    <linearGradient id="accent" x1="0" y1="0" x2="1" y2="0">
      <stop stop-color="#3F6F62"/>
      <stop offset="0.72" stop-color="#8A682F"/>
      <stop offset="1" stop-color="#9B594B"/>
    </linearGradient>
    <linearGradient id="glass" x1="0" y1="0" x2="1" y2="1">
      <stop stop-color="#FFFFFF" stop-opacity="0.98"/>
      <stop offset="1" stop-color="#EEE7DC" stop-opacity="0.94"/>
    </linearGradient>
    <pattern id="grid" width="34" height="34" patternUnits="userSpaceOnUse">
      <path d="M34 0H0V34" stroke="#D4CCBF" stroke-opacity="0.48"/>
    </pattern>
    <filter id="shadow" x="-30%" y="-30%" width="170%" height="190%">
      <feDropShadow dx="0" dy="20" stdDeviation="22" flood-color="#6F6558" flood-opacity="0.24"/>
    </filter>
    <filter id="smallShadow" x="-40%" y="-40%" width="180%" height="200%">
      <feDropShadow dx="0" dy="10" stdDeviation="12" flood-color="#6F6558" flood-opacity="0.18"/>
    </filter>
    <clipPath id="laptop"><rect x="663" y="99" width="374" height="226" rx="8"/></clipPath>
    <clipPath id="phone"><rect x="1025" y="213" width="82" height="164" rx="14"/></clipPath>
  </defs>

  <rect width="1200" height="470" rx="28" fill="url(#bg)"/>
  <rect width="1200" height="470" rx="28" fill="url(#grid)" opacity="0.75"/>
  <rect width="1200" height="470" rx="28" fill="url(#glow)"/>
  <rect x="1" y="1" width="1198" height="468" rx="27" stroke="#D0C7B9"/>

  <text x="48" y="39" fill="#3F6F62" font-family="ui-monospace, SFMono-Regular, Menlo, Monaco, Consolas, monospace" font-size="11" letter-spacing="2.2">PRODUCT ENGINEERING / AI-AUGMENTED DELIVERY</text>
  <text x="1152" y="39" text-anchor="end" fill="#68737C" font-family="ui-monospace, SFMono-Regular, Menlo, Monaco, Consolas, monospace" font-size="10" letter-spacing="1.5">LAHORE · PAKISTAN · 2026</text>
  <path d="M48 57H1152" stroke="#D0C7B9"/>

  <g transform="translate(52 79)">
    <text x="0" y="54" fill="#22282E" font-family="Inter, Segoe UI, Arial, sans-serif" font-size="52" font-weight="760">Abdullah Tariq</text>
    <text x="2" y="92" fill="#7B5D2F" font-family="ui-monospace, SFMono-Regular, Menlo, Monaco, Consolas, monospace" font-size="15" font-weight="700" letter-spacing="2.5">SOFTWARE DEVELOPER</text>
    <path d="M2 117H492" stroke="url(#accent)" stroke-width="2"/>
    <text x="2" y="157" fill="#53606A" font-family="Inter, Segoe UI, Arial, sans-serif" font-size="18">I build complete products across web, mobile, AI,</text>
    <text x="2" y="184" fill="#53606A" font-family="Inter, Segoe UI, Arial, sans-serif" font-size="18">backend, and television platforms.</text>

    <g transform="translate(2 211)">
      <rect width="482" height="62" rx="14" fill="#F5F0E7" stroke="#D2C7B7"/>
      <rect x="0" y="0" width="5" height="62" rx="2.5" fill="#3F6F62"/>
      <text x="20" y="22" fill="#3F6F62" font-family="ui-monospace, SFMono-Regular, Menlo, Monaco, Consolas, monospace" font-size="9.5" font-weight="700" letter-spacing="1.4">AI ENGINEERING LEVERAGE</text>
      <text x="20" y="43" fill="#2B333A" font-family="Inter, Segoe UI, Arial, sans-serif" font-size="13.2" font-weight="650">More surface area. Faster iteration. Same accountability.</text>
      <text x="20" y="56" fill="#68737C" font-family="Inter, Segoe UI, Arial, sans-serif" font-size="8.5">Source review · implementation · tests · builds · verification · documentation</text>
    </g>

    <g transform="translate(2 298)">
      <rect width="296" height="38" rx="19" fill="#F1ECE2" stroke="#3F6F62" stroke-opacity="0.55"/>
      <circle cx="21" cy="19" r="5" fill="#3F6F62"/>
      <circle cx="21" cy="19" r="10" fill="#3F6F62" fill-opacity="0.1"/>
      <text x="39" y="24" fill="#294C42" font-family="ui-monospace, SFMono-Regular, Menlo, Monaco, Consolas, monospace" font-size="10" font-weight="700" letter-spacing="1.1">OPEN TO ENGINEERING ROLES</text>
    </g>

    <g transform="translate(2 363)">
      <text x="0" y="0" fill="#6D7881" font-family="ui-monospace, SFMono-Regular, Menlo, Monaco, Consolas, monospace" font-size="9" letter-spacing="1.3">PROOF OF SCALE</text>
      <text x="0" y="28" fill="#22282E" font-family="Inter, Segoe UI, Arial, sans-serif" font-size="21" font-weight="750">118</text>
      <text x="45" y="28" fill="#65707A" font-family="Inter, Segoe UI, Arial, sans-serif" font-size="10.5">mobile tools</text>
      <path d="M148 3V31" stroke="#D0C7B9"/>
      <text x="170" y="28" fill="#22282E" font-family="Inter, Segoe UI, Arial, sans-serif" font-size="21" font-weight="750">294+</text>
      <text x="232" y="28" fill="#65707A" font-family="Inter, Segoe UI, Arial, sans-serif" font-size="10.5">templates</text>
      <path d="M329 3V31" stroke="#D0C7B9"/>
      <text x="351" y="28" fill="#22282E" font-family="Inter, Segoe UI, Arial, sans-serif" font-size="21" font-weight="750">5</text>
      <text x="369" y="28" fill="#65707A" font-family="Inter, Segoe UI, Arial, sans-serif" font-size="10.5">platforms</text>
    </g>
  </g>

  <g filter="url(#shadow)">
    <g transform="translate(897 72)">
      <rect width="238" height="142" rx="14" fill="url(#metal)" stroke="#7A838B"/>
      <rect x="8" y="8" width="222" height="119" rx="8" fill="#080D12"/>
      <rect x="17" y="18" width="204" height="99" rx="6" fill="url(#screen)"/>
      <text x="29" y="37" fill="#D2A85F" font-family="ui-monospace, SFMono-Regular, Menlo, Monaco, Consolas, monospace" font-size="7.5" letter-spacing="1.3">VIEVIO / TV OPERATIONS</text>
      <rect x="29" y="51" width="77" height="48" rx="6" fill="#172129" stroke="#34434D"/>
      <circle cx="42" cy="65" r="4" fill="#77A18F"/>
      <path d="M53 62H96M53 68H84" stroke="#AEB8C0" stroke-width="2" stroke-linecap="round"/>
      <rect x="116" y="51" width="93" height="11" rx="3" fill="#202B34"/>
      <rect x="116" y="70" width="72" height="8" rx="3" fill="#202B34"/>
      <rect x="116" y="86" width="85" height="8" rx="3" fill="#202B34"/>
      <circle cx="204" cy="28" r="3" fill="#77A18F"/>
      <path d="M101 142H137L144 157H94L101 142Z" fill="#39444D"/>
    </g>

    <rect x="642" y="80" width="414" height="268" rx="17" fill="url(#metal)" stroke="#7C858D"/>
    <rect x="653" y="91" width="392" height="246" rx="10" fill="#080D12" stroke="#222C35"/>
    <circle cx="849" cy="86" r="2.2" fill="#A4ABB1"/>
    <g clip-path="url(#laptop)">
      <rect x="663" y="99" width="374" height="226" fill="url(#screen)"/>
      <rect x="663" y="99" width="374" height="26" fill="#172029"/>
      <circle cx="677" cy="112" r="3" fill="#C87D6D"/>
      <circle cx="689" cy="112" r="3" fill="#D2A85F"/>
      <circle cx="701" cy="112" r="3" fill="#77A18F"/>
      <text x="883" y="116" fill="#77838D" font-family="ui-monospace, SFMono-Regular, Menlo, Monaco, Consolas, monospace" font-size="7">PRODUCT COMMAND CENTER</text>
      <rect x="663" y="125" width="72" height="200" fill="#111820"/>
      <rect x="675" y="140" width="48" height="9" rx="4" fill="#77A18F" fill-opacity="0.2"/>
      <rect x="675" y="162" width="35" height="5" rx="2.5" fill="#3B4751"/>
      <rect x="675" y="179" width="44" height="5" rx="2.5" fill="#3B4751"/>
      <rect x="675" y="196" width="31" height="5" rx="2.5" fill="#3B4751"/>
      <rect x="675" y="273" width="48" height="32" rx="7" fill="#172129" stroke="#34414A"/>
      <circle cx="687" cy="286" r="4" fill="#77A18F"/>
      <path d="M698 283H714M698 290H709" stroke="#89959F" stroke-width="2" stroke-linecap="round"/>

      <text x="753" y="151" fill="#F4F0E7" font-family="Inter, Segoe UI, Arial, sans-serif" font-size="15" font-weight="700">Selected systems</text>
      <text x="753" y="168" fill="#7F8B95" font-family="Inter, Segoe UI, Arial, sans-serif" font-size="8.5">Products, AI providers, and delivery status</text>

      <rect x="753" y="184" width="119" height="60" rx="8" fill="#172129" stroke="#35434D"/>
      <text x="764" y="200" fill="#77A18F" font-family="ui-monospace, SFMono-Regular, Menlo, Monaco, Consolas, monospace" font-size="7">NETPULSE PRO</text>
      <text x="764" y="223" fill="#F4F0E7" font-family="Inter, Segoe UI, Arial, sans-serif" font-size="18" font-weight="750">118</text>
      <text x="799" y="223" fill="#82909A" font-family="Inter, Segoe UI, Arial, sans-serif" font-size="8">tools</text>
      <rect x="764" y="232" width="58" height="5" rx="2.5" fill="#77A18F" fill-opacity="0.32"/>

      <rect x="882" y="184" width="137" height="60" rx="8" fill="#172129" stroke="#35434D"/>
      <text x="893" y="200" fill="#D2A85F" font-family="ui-monospace, SFMono-Regular, Menlo, Monaco, Consolas, monospace" font-size="7">RESUMABUILDER</text>
      <text x="893" y="222" fill="#F4F0E7" font-family="Inter, Segoe UI, Arial, sans-serif" font-size="11" font-weight="700">Gemini AI</text>
      <text x="893" y="236" fill="#82909A" font-family="Inter, Segoe UI, Arial, sans-serif" font-size="7">294+ ATS templates</text>

      <rect x="753" y="254" width="119" height="52" rx="8" fill="#151E26" stroke="#35434D"/>
      <text x="764" y="271" fill="#C87D6D" font-family="ui-monospace, SFMono-Regular, Menlo, Monaco, Consolas, monospace" font-size="7">PREPWITHAI</text>
      <text x="764" y="290" fill="#F4F0E7" font-family="Inter, Segoe UI, Arial, sans-serif" font-size="10" font-weight="700">Groq · Llama 3.3</text>
      <text x="764" y="301" fill="#82909A" font-family="Inter, Segoe UI, Arial, sans-serif" font-size="6.7">Streaming + evaluation</text>

      <rect x="882" y="254" width="137" height="52" rx="8" fill="#151E26" stroke="#35434D"/>
      <text x="893" y="271" fill="#77A18F" font-family="ui-monospace, SFMono-Regular, Menlo, Monaco, Consolas, monospace" font-size="7">DELIVERY LOOP</text>
      <path d="M893 289H1004" stroke="#35424C" stroke-width="2"/>
      <circle cx="899" cy="289" r="3" fill="#77A18F"/>
      <circle cx="933" cy="289" r="3" fill="#D2A85F"/>
      <circle cx="968" cy="289" r="3" fill="#C87D6D"/>
      <circle cx="1004" cy="289" r="3" fill="#77A18F"/>
      <text x="893" y="302" fill="#82909A" font-family="Inter, Segoe UI, Arial, sans-serif" font-size="6.3">READ · BUILD · VERIFY · SHIP</text>
    </g>
    <path d="M619 348H1080L1042 378H657L619 348Z" fill="url(#metal)" stroke="#737D86"/>
    <path d="M779 353H920L903 365H796L779 353Z" fill="#172029"/>
  </g>

  <g transform="rotate(3 1066 302)" filter="url(#smallShadow)">
    <rect x="1014" y="198" width="104" height="202" rx="22" fill="url(#metal)" stroke="#7D868E"/>
    <rect x="1022" y="206" width="88" height="186" rx="17" fill="#080D12"/>
    <rect x="1048" y="210" width="37" height="5" rx="2.5" fill="#29343D"/>
    <g clip-path="url(#phone)">
      <rect x="1025" y="213" width="82" height="164" fill="#10171D"/>
      <text x="1034" y="233" fill="#F4F0E7" font-family="Inter, Segoe UI, Arial, sans-serif" font-size="8" font-weight="700">NetPulse</text>
      <circle cx="1095" cy="229" r="3.5" fill="#77A18F"/>
      <rect x="1033" y="244" width="66" height="31" rx="7" fill="#172129" stroke="#31414B"/>
      <text x="1041" y="257" fill="#77A18F" font-family="ui-monospace, SFMono-Regular, Menlo, Monaco, Consolas, monospace" font-size="5">NETWORK</text>
      <text x="1041" y="269" fill="#F4F0E7" font-family="Inter, Segoe UI, Arial, sans-serif" font-size="7" font-weight="700">Connected</text>
      <circle cx="1090" cy="260" r="4" fill="#77A18F" fill-opacity="0.15"/>
      <circle cx="1090" cy="260" r="2" fill="#77A18F"/>
      <text x="1033" y="290" fill="#7F8B95" font-family="ui-monospace, SFMono-Regular, Menlo, Monaco, Consolas, monospace" font-size="5">QUICK TOOLS</text>
      <rect x="1033" y="298" width="29" height="29" rx="6" fill="#172129" stroke="#303C46"/>
      <circle cx="1047.5" cy="310" r="5" stroke="#77A18F"/>
      <path d="M1044 314L1051 307" stroke="#77A18F" stroke-linecap="round"/>
      <rect x="1070" y="298" width="29" height="29" rx="6" fill="#172129" stroke="#303C46"/>
      <path d="M1078 316C1083 305 1089 305 1094 316" stroke="#D2A85F" stroke-width="1.4"/>
      <rect x="1033" y="337" width="66" height="23" rx="6" fill="#77A18F" fill-opacity="0.12" stroke="#77A18F" stroke-opacity="0.28"/>
      <text x="1066" y="351" text-anchor="middle" fill="#C9D9D3" font-family="Inter, Segoe UI, Arial, sans-serif" font-size="6">118 tools</text>
    </g>
  </g>

  <g filter="url(#smallShadow)">
    <rect x="570" y="111" width="107" height="28" rx="14" fill="url(#glass)" stroke="#3F6F62" stroke-opacity="0.38"/>
    <circle cx="586" cy="125" r="4" fill="#3F6F62"/>
    <text x="598" y="129" fill="#294C42" font-family="ui-monospace, SFMono-Regular, Menlo, Monaco, Consolas, monospace" font-size="7.2">WEB + SAAS</text>
    <rect x="574" y="309" width="112" height="28" rx="14" fill="url(#glass)" stroke="#7B5D2F" stroke-opacity="0.36"/>
    <circle cx="590" cy="323" r="4" fill="#7B5D2F"/>
    <text x="602" y="327" fill="#654A22" font-family="ui-monospace, SFMono-Regular, Menlo, Monaco, Consolas, monospace" font-size="7.2">AI DELIVERY</text>
  </g>

  <path d="M48 431H1152" stroke="#D0C7B9"/>
  <text x="48" y="453" fill="#69747D" font-family="ui-monospace, SFMono-Regular, Menlo, Monaco, Consolas, monospace" font-size="9" letter-spacing="1.25">SOURCE-FIRST · MULTI-PLATFORM · AI-AUGMENTED · HUMAN-VERIFIED</text>
  <text x="1152" y="453" text-anchor="end" fill="#3F6F62" font-family="ui-monospace, SFMono-Regular, Menlo, Monaco, Consolas, monospace" font-size="9" letter-spacing="1.3">BUILD BEYOND THE DEMO</text>
</svg>