<svg width="1200" height="360" viewBox="0 0 1200 360" fill="none" xmlns="http://www.w3.org/2000/svg">
<defs>
  <linearGradient id="bg" x1="30" y1="20" x2="1170" y2="340" gradientUnits="userSpaceOnUse"><stop stop-color="#FCFBF7"/><stop offset="1" stop-color="#F1ECE2"/></linearGradient>
  <linearGradient id="accent" x1="0" y1="0" x2="1" y2="1"><stop stop-color="#3F6F62"/><stop offset="1" stop-color="#7B5D2F"/></linearGradient>
  <pattern id="grid" width="32" height="32" patternUnits="userSpaceOnUse"><path d="M32 0H0V32" stroke="#D5CEC1" stroke-opacity="0.42"/></pattern>
  <filter id="shadow" x="-20%" y="-20%" width="140%" height="160%"><feDropShadow dx="0" dy="12" stdDeviation="14" flood-color="#6B6255" flood-opacity="0.16"/></filter>
</defs>
<rect width="1200" height="360" rx="26" fill="url(#bg)"/><rect width="1200" height="360" rx="26" fill="url(#grid)"/><rect x="1" y="1" width="1198" height="358" rx="25" stroke="#D2CABC"/>
<text x="42" y="39" fill="#3F6F62" font-family="ui-monospace,monospace" font-size="11" letter-spacing="2">SELECTED SYSTEMS / PRODUCT EVIDENCE</text><text x="1158" y="39" text-anchor="end" fill="#66717A" font-family="ui-monospace,monospace" font-size="10">RELEASED · ACTIVE · COMMERCIAL</text>
<path d="M42 56H1158" stroke="#D2CABC"/>

<g filter="url(#shadow)">
  <g transform="translate(42 78)">
    <rect width="540" height="112" rx="16" fill="#FAF8F2" stroke="#D6CFC3"/>
    <rect x="0" y="0" width="7" height="112" rx="3.5" fill="#3F6F62"/>
    <text x="26" y="27" fill="#3F6F62" font-family="ui-monospace,monospace" font-size="9" letter-spacing="1.5">01 / RELEASED MOBILE PRODUCT</text>
    <text x="26" y="58" fill="#20272E" font-family="Inter,Segoe UI,Arial" font-size="22" font-weight="750">NetPulse Pro</text>
    <text x="26" y="81" fill="#59636D" font-family="Inter,Segoe UI,Arial" font-size="12">118 network, privacy, security, Wi-Fi, and diagnostic tools.</text>
    <rect x="395" y="24" width="118" height="64" rx="12" fill="#EEE8DC" stroke="#D2CABC"/>
    <text x="454" y="53" text-anchor="middle" fill="#20272E" font-family="Inter,Segoe UI,Arial" font-size="25" font-weight="760">118</text>
    <text x="454" y="72" text-anchor="middle" fill="#3F6F62" font-family="ui-monospace,monospace" font-size="8" letter-spacing="1.2">TOOLS</text>
    <text x="26" y="101" fill="#737C84" font-family="ui-monospace,monospace" font-size="8.5">REACT NATIVE · EXPO · TYPESCRIPT · SQLITE</text>
  </g>
  <g transform="translate(618 78)">
    <rect width="540" height="112" rx="16" fill="#FAF8F2" stroke="#D6CFC3"/>
    <rect x="0" y="0" width="7" height="112" rx="3.5" fill="#7B5D2F"/>
    <text x="26" y="27" fill="#7B5D2F" font-family="ui-monospace,monospace" font-size="9" letter-spacing="1.5">02 / FULL-STACK AI SAAS</text>
    <text x="26" y="58" fill="#20272E" font-family="Inter,Segoe UI,Arial" font-size="22" font-weight="750">PrepWithAI</text>
    <text x="26" y="81" fill="#59636D" font-family="Inter,Segoe UI,Arial" font-size="12">Interview practice, feedback, coding, analytics, and billing.</text>
    <rect x="395" y="24" width="118" height="64" rx="12" fill="#EEE8DC" stroke="#D2CABC"/>
    <path d="M414 70C430 53 443 60 455 43C468 25 481 61 495 40" stroke="#7B5D2F" stroke-width="2" fill="none"/>
    <circle cx="495" cy="40" r="3" fill="#7B5D2F"/>
    <text x="454" y="83" text-anchor="middle" fill="#7B5D2F" font-family="ui-monospace,monospace" font-size="8" letter-spacing="1">AI SAAS</text>
    <text x="26" y="101" fill="#737C84" font-family="ui-monospace,monospace" font-size="8.5">NEXT.JS · REACT · MONGODB · GROQ · STRIPE</text>
  </g>
  <g transform="translate(42 208)">
    <rect width="540" height="112" rx="16" fill="#FAF8F2" stroke="#D6CFC3"/>
    <rect x="0" y="0" width="7" height="112" rx="3.5" fill="url(#accent)"/>
    <text x="26" y="27" fill="#3F6F62" font-family="ui-monospace,monospace" font-size="9" letter-spacing="1.5">03 / COMMERCIAL MULTI-PLATFORM SYSTEM</text>
    <text x="26" y="58" fill="#20272E" font-family="Inter,Segoe UI,Arial" font-size="22" font-weight="750">Vievio</text>
    <text x="26" y="81" fill="#59636D" font-family="Inter,Segoe UI,Arial" font-size="12">Web, mobile, Android TV, Samsung Tizen, and LG webOS.</text>
    <rect x="395" y="24" width="118" height="64" rx="12" fill="#EEE8DC" stroke="#D2CABC"/>
    <rect x="417" y="36" width="74" height="37" rx="5" stroke="#3F6F62" stroke-width="2"/><path d="M439 79H469M454 73V79" stroke="#3F6F62" stroke-width="2" stroke-linecap="round"/>
    <text x="454" y="91" text-anchor="middle" fill="#3F6F62" font-family="ui-monospace,monospace" font-size="7.5">5+ PLATFORMS</text>
    <text x="26" y="101" fill="#737C84" font-family="ui-monospace,monospace" font-size="8.5">NEXT.JS · REACT NATIVE · TIZEN · WEBOS · POSTGRESQL</text>
  </g>
  <g transform="translate(618 208)">
    <rect width="540" height="112" rx="16" fill="#FAF8F2" stroke="#D6CFC3"/>
    <rect x="0" y="0" width="7" height="112" rx="3.5" fill="#8A7651"/>
    <text x="26" y="27" fill="#7B5D2F" font-family="ui-monospace,monospace" font-size="9" letter-spacing="1.5">04 / AI DEVELOPER PLATFORM</text>
    <text x="26" y="58" fill="#20272E" font-family="Inter,Segoe UI,Arial" font-size="22" font-weight="750">DevReviewer</text>
    <text x="26" y="81" fill="#59636D" font-family="Inter,Segoe UI,Arial" font-size="12">Review, tests, Big-O, documentation, learning, and auto-fix.</text>
    <rect x="395" y="24" width="118" height="64" rx="12" fill="#EEE8DC" stroke="#D2CABC"/>
    <circle cx="432" cy="50" r="7" stroke="#7B5D2F" stroke-width="2"/><circle cx="459" cy="39" r="6" stroke="#7B5D2F" stroke-width="2"/><circle cx="478" cy="59" r="6" stroke="#7B5D2F" stroke-width="2"/><path d="M438 47L453 41M438 54L472 58M462 44L475 54" stroke="#7B5D2F"/>
    <text x="454" y="84" text-anchor="middle" fill="#7B5D2F" font-family="ui-monospace,monospace" font-size="8">9 WORKFLOWS</text>
    <text x="26" y="101" fill="#737C84" font-family="ui-monospace,monospace" font-size="8.5">NEXT.JS · TYPESCRIPT · LLAMA · GROQ · MONGODB</text>
  </g>
</g>
</svg>