<svg width="1200" height="520" viewBox="0 0 1200 520" fill="none" xmlns="http://www.w3.org/2000/svg">
  <defs>
    <linearGradient id="bg" x1="40" y1="20" x2="1160" y2="500" gradientUnits="userSpaceOnUse">
      <stop stop-color="#FCFAF5"/>
      <stop offset="1" stop-color="#EEE7DB"/>
    </linearGradient>
    <pattern id="grid" width="32" height="32" patternUnits="userSpaceOnUse">
      <path d="M32 0H0V32" stroke="#D4CCBE" stroke-opacity="0.42"/>
    </pattern>
    <filter id="shadow" x="-20%" y="-20%" width="140%" height="160%">
      <feDropShadow dx="0" dy="14" stdDeviation="18" flood-color="#756B5E" flood-opacity="0.18"/>
    </filter>
  </defs>

  <rect width="1200" height="520" rx="28" fill="url(#bg)"/>
  <rect width="1200" height="520" rx="28" fill="url(#grid)" opacity="0.76"/>
  <rect x="1" y="1" width="1198" height="518" rx="27" stroke="#D1C8B9"/>

  <text x="44" y="42" fill="#3F6F62" font-family="ui-monospace, SFMono-Regular, Menlo, Monaco, Consolas, monospace" font-size="11" letter-spacing="2.1">SELECTED PRODUCT ATLAS</text>
  <text x="1156" y="42" text-anchor="end" fill="#66717A" font-family="ui-monospace, SFMono-Regular, Menlo, Monaco, Consolas, monospace" font-size="9.5" letter-spacing="1.4">MOBILE · AI SAAS · CAREER TOOLS · TV SYSTEMS</text>
  <path d="M44 58H1156" stroke="#D1C8B9"/>

  <g transform="translate(44 82)" filter="url(#shadow)">
    <rect width="542" height="178" rx="20" fill="#F8F4EB" stroke="#CEC4B5"/>
    <rect x="20" y="20" width="58" height="58" rx="14" fill="#E7EFEA" stroke="#3F6F62" stroke-opacity="0.65"/>
    <circle cx="49" cy="49" r="16" stroke="#3F6F62" stroke-width="2"/>
    <path d="M40 51L46 57L59 42" stroke="#294C42" stroke-width="2.5" stroke-linecap="round" stroke-linejoin="round"/>
    <text x="96" y="33" fill="#3F6F62" font-family="ui-monospace, SFMono-Regular, Menlo, Monaco, Consolas, monospace" font-size="9.5" letter-spacing="1.2">01 / RELEASED MOBILE PRODUCT</text>
    <text x="96" y="63" fill="#20272E" font-family="Inter, Segoe UI, Arial, sans-serif" font-size="23" font-weight="760">NetPulse Pro</text>
    <text x="96" y="86" fill="#66717A" font-family="Inter, Segoe UI, Arial, sans-serif" font-size="11.5">Network intelligence and technical utility platform</text>
    <text x="20" y="126" fill="#20272E" font-family="Inter, Segoe UI, Arial, sans-serif" font-size="34" font-weight="760">118</text>
    <text x="84" y="126" fill="#66717A" font-family="Inter, Segoe UI, Arial, sans-serif" font-size="12">diagnostic, Wi-Fi, OSINT, security, and utility tools</text>
    <rect x="20" y="143" width="92" height="20" rx="10" fill="#3F6F62" fill-opacity="0.1"/>
    <text x="66" y="157" text-anchor="middle" fill="#294C42" font-family="Inter, Segoe UI, Arial, sans-serif" font-size="8.5">REACT NATIVE</text>
    <rect x="120" y="143" width="58" height="20" rx="10" fill="#3F6F62" fill-opacity="0.1"/>
    <text x="149" y="157" text-anchor="middle" fill="#294C42" font-family="Inter, Segoe UI, Arial, sans-serif" font-size="8.5">EXPO</text>
    <rect x="186" y="143" width="78" height="20" rx="10" fill="#3F6F62" fill-opacity="0.1"/>
    <text x="225" y="157" text-anchor="middle" fill="#294C42" font-family="Inter, Segoe UI, Arial, sans-serif" font-size="8.5">TYPESCRIPT</text>
    <g transform="translate(432 95)">
      <rect width="72" height="64" rx="12" fill="#EEE8DC" stroke="#C9C0B2"/>
      <rect x="11" y="9" width="50" height="46" rx="8" fill="#F7F3EA"/>
      <circle cx="36" cy="19" r="4" fill="#3F6F62"/>
      <path d="M20 34H52M20 43H44" stroke="#7A858E" stroke-width="3" stroke-linecap="round"/>
    </g>
  </g>

  <g transform="translate(614 82)" filter="url(#shadow)">
    <rect width="542" height="178" rx="20" fill="#F8F4EB" stroke="#CEC4B5"/>
    <rect x="20" y="20" width="58" height="58" rx="14" fill="#F0E6D4" stroke="#7B5D2F" stroke-opacity="0.68"/>
    <path d="M35 51C43 35 51 35 63 51M39 43C46 29 55 29 59 43" stroke="#7B5D2F" stroke-width="2.3" stroke-linecap="round"/>
    <circle cx="49" cy="56" r="3" fill="#7B5D2F"/>
    <text x="96" y="33" fill="#7B5D2F" font-family="ui-monospace, SFMono-Regular, Menlo, Monaco, Consolas, monospace" font-size="9.5" letter-spacing="1.2">02 / FULL-STACK AI SAAS</text>
    <text x="96" y="63" fill="#20272E" font-family="Inter, Segoe UI, Arial, sans-serif" font-size="23" font-weight="760">PrepWithAI</text>
    <text x="96" y="86" fill="#66717A" font-family="Inter, Segoe UI, Arial, sans-serif" font-size="11.5">Interview practice, evaluation, reports, and coaching</text>
    <text x="20" y="122" fill="#20272E" font-family="Inter, Segoe UI, Arial, sans-serif" font-size="18" font-weight="720">Groq + Llama 3.3 70B</text>
    <text x="20" y="140" fill="#66717A" font-family="Inter, Segoe UI, Arial, sans-serif" font-size="9.5">Retry logic · streaming · usage tracking · calibrated feedback</text>
    <rect x="20" y="149" width="76" height="20" rx="10" fill="#7B5D2F" fill-opacity="0.09"/>
    <text x="58" y="163" text-anchor="middle" fill="#6B512B" font-family="Inter, Segoe UI, Arial, sans-serif" font-size="8.5">NEXT.JS</text>
    <rect x="104" y="149" width="72" height="20" rx="10" fill="#7B5D2F" fill-opacity="0.09"/>
    <text x="140" y="163" text-anchor="middle" fill="#6B512B" font-family="Inter, Segoe UI, Arial, sans-serif" font-size="8.5">MONGODB</text>
    <rect x="184" y="149" width="62" height="20" rx="10" fill="#7B5D2F" fill-opacity="0.09"/>
    <text x="215" y="163" text-anchor="middle" fill="#6B512B" font-family="Inter, Segoe UI, Arial, sans-serif" font-size="8.5">STRIPE</text>
    <g transform="translate(426 105)">
      <path d="M0 30C20 4 35 24 50 7C64 -8 80 20 96 0" stroke="#7B5D2F" stroke-width="2.4" fill="none"/>
      <circle cx="96" cy="0" r="4" fill="#7B5D2F"/>
      <path d="M0 43H96" stroke="#C9C0B2"/>
    </g>
  </g>

  <g transform="translate(44 288)" filter="url(#shadow)">
    <rect width="542" height="178" rx="20" fill="#F8F4EB" stroke="#CEC4B5"/>
    <rect x="20" y="20" width="58" height="58" rx="14" fill="#EEE9F3" stroke="#7D5FA8" stroke-opacity="0.65"/>
    <path d="M36 33H62V62H36V33ZM42 28H56" stroke="#7D5FA8" stroke-width="2.2" stroke-linejoin="round"/>
    <path d="M42 43H56M42 51H54" stroke="#7D5FA8" stroke-width="2" stroke-linecap="round"/>
    <text x="96" y="33" fill="#7D5FA8" font-family="ui-monospace, SFMono-Regular, Menlo, Monaco, Consolas, monospace" font-size="9.5" letter-spacing="1.2">03 / AI CAREER TOOLKIT</text>
    <text x="96" y="63" fill="#20272E" font-family="Inter, Segoe UI, Arial, sans-serif" font-size="23" font-weight="760">ResumaBuilder</text>
    <text x="96" y="86" fill="#66717A" font-family="Inter, Segoe UI, Arial, sans-serif" font-size="11.5">Resume building, ATS analysis, content, and job matching</text>
    <text x="20" y="126" fill="#20272E" font-family="Inter, Segoe UI, Arial, sans-serif" font-size="34" font-weight="760">294+</text>
    <text x="95" y="126" fill="#66717A" font-family="Inter, Segoe UI, Arial, sans-serif" font-size="12">ATS-ready templates with Google Gemini integration</text>
    <rect x="20" y="143" width="82" height="20" rx="10" fill="#7D5FA8" fill-opacity="0.09"/>
    <text x="61" y="157" text-anchor="middle" fill="#634985" font-family="Inter, Segoe UI, Arial, sans-serif" font-size="8.5">GEMINI</text>
    <rect x="110" y="143" width="96" height="20" rx="10" fill="#7D5FA8" fill-opacity="0.09"/>
    <text x="158" y="157" text-anchor="middle" fill="#634985" font-family="Inter, Segoe UI, Arial, sans-serif" font-size="8.5">FLASH + PRO</text>
    <rect x="214" y="143" width="74" height="20" rx="10" fill="#7D5FA8" fill-opacity="0.09"/>
    <text x="251" y="157" text-anchor="middle" fill="#634985" font-family="Inter, Segoe UI, Arial, sans-serif" font-size="8.5">EXPORTS</text>
    <g transform="translate(434 94)">
      <rect width="74" height="66" rx="12" fill="#EEE8DC" stroke="#C9C0B2"/>
      <path d="M20 18H54M20 28H50M20 38H45M20 48H40" stroke="#7D5FA8" stroke-width="3" stroke-linecap="round"/>
    </g>
  </g>

  <g transform="translate(614 288)" filter="url(#shadow)">
    <rect width="542" height="178" rx="20" fill="#F8F4EB" stroke="#CEC4B5"/>
    <rect x="20" y="20" width="58" height="58" rx="14" fill="#F1E3DF" stroke="#A55346" stroke-opacity="0.65"/>
    <rect x="33" y="32" width="32" height="22" rx="4" stroke="#A55346" stroke-width="2.2"/>
    <path d="M40 62H58M49 54V62" stroke="#A55346" stroke-width="2.2" stroke-linecap="round"/>
    <text x="96" y="33" fill="#A55346" font-family="ui-monospace, SFMono-Regular, Menlo, Monaco, Consolas, monospace" font-size="9.5" letter-spacing="1.2">04 / MULTI-PLATFORM TV SYSTEM</text>
    <text x="96" y="63" fill="#20272E" font-family="Inter, Segoe UI, Arial, sans-serif" font-size="23" font-weight="760">Vievio</text>
    <text x="96" y="86" fill="#66717A" font-family="Inter, Segoe UI, Arial, sans-serif" font-size="11.5">IPTV clients, provider infrastructure, and operations</text>
    <text x="20" y="126" fill="#20272E" font-family="Inter, Segoe UI, Arial, sans-serif" font-size="34" font-weight="760">5</text>
    <text x="45" y="126" fill="#66717A" font-family="Inter, Segoe UI, Arial, sans-serif" font-size="12">delivery surfaces: web, mobile, Android TV, Tizen, webOS</text>
    <rect x="20" y="143" width="70" height="20" rx="10" fill="#A55346" fill-opacity="0.09"/>
    <text x="55" y="157" text-anchor="middle" fill="#874338" font-family="Inter, Segoe UI, Arial, sans-serif" font-size="8.5">TIZEN</text>
    <rect x="98" y="143" width="70" height="20" rx="10" fill="#A55346" fill-opacity="0.09"/>
    <text x="133" y="157" text-anchor="middle" fill="#874338" font-family="Inter, Segoe UI, Arial, sans-serif" font-size="8.5">WEBOS</text>
    <rect x="176" y="143" width="96" height="20" rx="10" fill="#A55346" fill-opacity="0.09"/>
    <text x="224" y="157" text-anchor="middle" fill="#874338" font-family="Inter, Segoe UI, Arial, sans-serif" font-size="8.5">ANDROID TV</text>
    <g transform="translate(426 102)">
      <rect width="86" height="50" rx="9" fill="#EEE8DC" stroke="#C9C0B2"/>
      <rect x="10" y="10" width="66" height="30" rx="5" fill="#F7F3EA"/>
      <circle cx="23" cy="25" r="5" fill="#A55346"/>
      <path d="M34 21H65M34 28H58" stroke="#7A858E" stroke-width="3" stroke-linecap="round"/>
    </g>
  </g>

  <text x="44" y="496" fill="#66717A" font-family="ui-monospace, SFMono-Regular, Menlo, Monaco, Consolas, monospace" font-size="9" letter-spacing="1.1">PUBLIC PRODUCTS · PRIVATE COMMERCIAL SYSTEMS · VERIFIED AI INTEGRATIONS</text>
  <text x="1156" y="496" text-anchor="end" fill="#3F6F62" font-family="ui-monospace, SFMono-Regular, Menlo, Monaco, Consolas, monospace" font-size="9" letter-spacing="1.2">PRODUCTS OVER PROMISES</text>
</svg>