<svg width="1200" height="430" viewBox="0 0 1200 430" fill="none" xmlns="http://www.w3.org/2000/svg">
  <defs>
    <linearGradient id="bg" x1="40" y1="10" x2="1160" y2="420" gradientUnits="userSpaceOnUse">
      <stop stop-color="#0B1017"/>
      <stop offset="1" stop-color="#05070B"/>
    </linearGradient>
    <radialGradient id="center" cx="0" cy="0" r="1" gradientTransform="translate(600 214) rotate(90) scale(126)">
      <stop stop-color="#1A2B3A"/>
      <stop offset="1" stop-color="#091018"/>
    </radialGradient>
    <pattern id="dots" width="24" height="24" patternUnits="userSpaceOnUse">
      <circle cx="2" cy="2" r="1" fill="#94A3B8" fill-opacity="0.07"/>
    </pattern>
    <filter id="glow" x="-70%" y="-70%" width="240%" height="240%">
      <feGaussianBlur stdDeviation="7" result="blur"/>
      <feMerge><feMergeNode in="blur"/><feMergeNode in="SourceGraphic"/></feMerge>
    </filter>
  </defs>

  <rect width="1200" height="430" rx="26" fill="url(#bg)"/>
  <rect width="1200" height="430" rx="26" fill="url(#dots)"/>
  <rect x="1" y="1" width="1198" height="428" rx="25" stroke="#94A3B8" stroke-opacity="0.12"/>

  <text x="42" y="42" fill="#67E8F9" font-family="ui-monospace, SFMono-Regular, Menlo, Monaco, Consolas, monospace" font-size="12" letter-spacing="2">PRODUCT ECOSYSTEM / SELECTED SYSTEMS</text>
  <text x="1158" y="42" text-anchor="end" fill="#64748B" font-family="ui-monospace, SFMono-Regular, Menlo, Monaco, Consolas, monospace" font-size="11">CONNECTED BY SHARED ENGINEERING PRACTICE</text>

  <!-- orbital paths -->
  <ellipse cx="600" cy="224" rx="430" ry="142" stroke="#67E8F9" stroke-opacity="0.12"/>
  <ellipse cx="600" cy="224" rx="318" ry="102" stroke="#A3E635" stroke-opacity="0.08" stroke-dasharray="5 10"/>
  <path d="M258 136L496 190M942 136L704 190M220 290L486 254M980 290L714 254M442 354L554 310M758 354L646 310" stroke="#94A3B8" stroke-opacity="0.16"/>

  <!-- center -->
  <circle cx="600" cy="224" r="95" fill="url(#center)" stroke="#67E8F9" stroke-opacity="0.32"/>
  <circle cx="600" cy="224" r="73" stroke="#67E8F9" stroke-opacity="0.15" stroke-dasharray="4 8"/>
  <circle cx="600" cy="224" r="8" fill="#67E8F9" filter="url(#glow)"/>
  <path d="M600 160V185M600 263V288M536 224H561M639 224H664" stroke="#67E8F9" stroke-opacity="0.5"/>
  <text x="600" y="210" text-anchor="middle" fill="#F8FAFC" font-family="Inter, Segoe UI, Arial, sans-serif" font-size="20" font-weight="800">PRODUCT</text>
  <text x="600" y="236" text-anchor="middle" fill="#F8FAFC" font-family="Inter, Segoe UI, Arial, sans-serif" font-size="20" font-weight="800">ENGINEERING</text>
  <text x="600" y="258" text-anchor="middle" fill="#67E8F9" font-family="ui-monospace, SFMono-Regular, Menlo, Monaco, Consolas, monospace" font-size="9" letter-spacing="1.8">WEB · MOBILE · AI · TV</text>

  <!-- node helper style: each node has icon, title, subtype -->
  <g transform="translate(126 87)">
    <rect width="246" height="96" rx="16" fill="#0B121A" stroke="#67E8F9" stroke-opacity="0.28"/>
    <circle cx="34" cy="34" r="17" fill="#67E8F9" fill-opacity="0.1" stroke="#67E8F9" stroke-opacity="0.5"/>
    <path d="M25 34H43M34 25V43" stroke="#67E8F9" stroke-width="2" stroke-linecap="round"/>
    <text x="62" y="31" fill="#F8FAFC" font-family="Inter, Segoe UI, Arial, sans-serif" font-size="16" font-weight="800">NETPULSE PRO</text>
    <text x="62" y="51" fill="#67E8F9" font-family="ui-monospace, SFMono-Regular, Menlo, Monaco, Consolas, monospace" font-size="10">118-TOOL MOBILE PLATFORM</text>
    <text x="18" y="79" fill="#64748B" font-family="Inter, Segoe UI, Arial, sans-serif" font-size="11">Diagnostics · Security · Wi-Fi · OSINT</text>
  </g>

  <g transform="translate(828 87)">
    <rect width="246" height="96" rx="16" fill="#0B121A" stroke="#A78BFA" stroke-opacity="0.3"/>
    <circle cx="34" cy="34" r="17" fill="#A78BFA" fill-opacity="0.1" stroke="#A78BFA" stroke-opacity="0.5"/>
    <circle cx="28" cy="33" r="4" stroke="#A78BFA" stroke-width="1.8"/><circle cx="40" cy="28" r="4" stroke="#A78BFA" stroke-width="1.8"/><circle cx="40" cy="40" r="4" stroke="#A78BFA" stroke-width="1.8"/>
    <path d="M32 31L36 29M32 35L36 39M40 32V36" stroke="#A78BFA"/>
    <text x="62" y="31" fill="#F8FAFC" font-family="Inter, Segoe UI, Arial, sans-serif" font-size="16" font-weight="800">DEVREVIEWER</text>
    <text x="62" y="51" fill="#A78BFA" font-family="ui-monospace, SFMono-Regular, Menlo, Monaco, Consolas, monospace" font-size="10">AI DEVELOPER WORKSPACE</text>
    <text x="18" y="79" fill="#64748B" font-family="Inter, Segoe UI, Arial, sans-serif" font-size="11">Review · Tests · Big-O · Documentation</text>
  </g>

  <g transform="translate(86 238)">
    <rect width="246" height="96" rx="16" fill="#0B121A" stroke="#F472B6" stroke-opacity="0.3"/>
    <circle cx="34" cy="34" r="17" fill="#F472B6" fill-opacity="0.1" stroke="#F472B6" stroke-opacity="0.5"/>
    <path d="M25 39C29 31 33 28 43 26M25 31C30 35 35 38 43 42" stroke="#F472B6" stroke-width="2" stroke-linecap="round"/>
    <text x="62" y="31" fill="#F8FAFC" font-family="Inter, Segoe UI, Arial, sans-serif" font-size="16" font-weight="800">PREPWITHAI</text>
    <text x="62" y="51" fill="#F472B6" font-family="ui-monospace, SFMono-Regular, Menlo, Monaco, Consolas, monospace" font-size="10">INTERVIEW PREPARATION SAAS</text>
    <text x="18" y="79" fill="#64748B" font-family="Inter, Segoe UI, Arial, sans-serif" font-size="11">Practice · Feedback · Analytics · Career tools</text>
  </g>

  <g transform="translate(868 238)">
    <rect width="246" height="96" rx="16" fill="#0B121A" stroke="#FBBF24" stroke-opacity="0.3"/>
    <circle cx="34" cy="34" r="17" fill="#FBBF24" fill-opacity="0.1" stroke="#FBBF24" stroke-opacity="0.5"/>
    <rect x="23" y="25" width="22" height="15" rx="2" stroke="#FBBF24" stroke-width="1.8"/>
    <path d="M30 44H38M34 40V44" stroke="#FBBF24" stroke-width="1.8" stroke-linecap="round"/>
    <text x="62" y="31" fill="#F8FAFC" font-family="Inter, Segoe UI, Arial, sans-serif" font-size="16" font-weight="800">VIEVIO</text>
    <text x="62" y="51" fill="#FBBF24" font-family="ui-monospace, SFMono-Regular, Menlo, Monaco, Consolas, monospace" font-size="10">MULTI-PLATFORM TV ECOSYSTEM</text>
    <text x="18" y="79" fill="#64748B" font-family="Inter, Segoe UI, Arial, sans-serif" font-size="11">Mobile · Android TV · Tizen · webOS</text>
  </g>

  <g transform="translate(348 324)">
    <rect width="246" height="78" rx="16" fill="#0B121A" stroke="#A3E635" stroke-opacity="0.28"/>
    <circle cx="32" cy="28" r="15" fill="#A3E635" fill-opacity="0.1" stroke="#A3E635" stroke-opacity="0.5"/>
    <path d="M25 31H39M25 25H39M28 36H36" stroke="#A3E635" stroke-width="1.8" stroke-linecap="round"/>
    <text x="58" y="28" fill="#F8FAFC" font-family="Inter, Segoe UI, Arial, sans-serif" font-size="15" font-weight="800">RESUMABUILDER</text>
    <text x="58" y="48" fill="#A3E635" font-family="ui-monospace, SFMono-Regular, Menlo, Monaco, Consolas, monospace" font-size="9">294+ ATS TEMPLATES</text>
    <text x="18" y="66" fill="#64748B" font-family="Inter, Segoe UI, Arial, sans-serif" font-size="10">AI content · ATS analysis · Multi-format export</text>
  </g>

  <g transform="translate(606 324)">
    <rect width="246" height="78" rx="16" fill="#0B121A" stroke="#FB7185" stroke-opacity="0.28"/>
    <circle cx="32" cy="28" r="15" fill="#FB7185" fill-opacity="0.1" stroke="#FB7185" stroke-opacity="0.5"/>
    <path d="M24 24H40M24 29H36M24 34H33" stroke="#FB7185" stroke-width="1.8" stroke-linecap="round"/>
    <text x="58" y="28" fill="#F8FAFC" font-family="Inter, Segoe UI, Arial, sans-serif" font-size="15" font-weight="800">NETWORK TOOLS HUB</text>
    <text x="58" y="48" fill="#FB7185" font-family="ui-monospace, SFMono-Regular, Menlo, Monaco, Consolas, monospace" font-size="9">230+ WEB UTILITIES</text>
    <text x="18" y="66" fill="#64748B" font-family="Inter, Segoe UI, Arial, sans-serif" font-size="10">Reusable tools · APIs · SSR · Global SEO</text>
  </g>
</svg>