<svg width="1200" height="520" viewBox="0 0 1200 520" fill="none" xmlns="http://www.w3.org/2000/svg">
  <defs>
    <linearGradient id="bg" x1="40" y1="20" x2="1160" y2="500" gradientUnits="userSpaceOnUse">
      <stop stop-color="#111821"/>
      <stop offset="1" stop-color="#090E13"/>
    </linearGradient>
    <pattern id="grid" width="32" height="32" patternUnits="userSpaceOnUse">
      <path d="M32 0H0V32" stroke="#313B45" stroke-opacity="0.22"/>
    </pattern>
    <filter id="shadow" x="-20%" y="-20%" width="140%" height="160%">
      <feDropShadow dx="0" dy="14" stdDeviation="18" flood-color="#000000" flood-opacity="0.34"/>
    </filter>
  </defs>

  <rect width="1200" height="520" rx="28" fill="url(#bg)"/>
  <rect width="1200" height="520" rx="28" fill="url(#grid)" opacity="0.6"/>
  <rect x="1" y="1" width="1198" height="518" rx="27" stroke="#35404A"/>

  <text x="44" y="42" fill="#78A58F" font-family="ui-monospace, SFMono-Regular, Menlo, Monaco, Consolas, monospace" font-size="11" letter-spacing="2.1">SELECTED PRODUCT ATLAS</text>
  <text x="1156" y="42" text-anchor="end" fill="#7C8790" font-family="ui-monospace, SFMono-Regular, Menlo, Monaco, Consolas, monospace" font-size="9.5" letter-spacing="1.4">MOBILE · AI SAAS · CAREER TOOLS · TV SYSTEMS</text>
  <path d="M44 58H1156" stroke="#303A44"/>

  <g transform="translate(44 82)" filter="url(#shadow)">
    <rect width="542" height="178" rx="20" fill="#141D26" stroke="#35414B"/>
    <rect x="20" y="20" width="58" height="58" rx="14" fill="#1B292F" stroke="#78A58F" stroke-opacity="0.65"/>
    <circle cx="49" cy="49" r="16" stroke="#78A58F" stroke-width="2"/>
    <path d="M40 51L46 57L59 42" stroke="#D6E7DF" stroke-width="2.5" stroke-linecap="round" stroke-linejoin="round"/>
    <text x="96" y="33" fill="#78A58F" font-family="ui-monospace, SFMono-Regular, Menlo, Monaco, Consolas, monospace" font-size="9.5" letter-spacing="1.2">01 / RELEASED MOBILE PRODUCT</text>
    <text x="96" y="63" fill="#F3F0E8" font-family="Inter, Segoe UI, Arial, sans-serif" font-size="23" font-weight="760">NetPulse Pro</text>
    <text x="96" y="86" fill="#8C98A2" font-family="Inter, Segoe UI, Arial, sans-serif" font-size="11.5">Network intelligence and technical utility platform</text>
    <text x="20" y="126" fill="#F3F0E8" font-family="Inter, Segoe UI, Arial, sans-serif" font-size="34" font-weight="760">118</text>
    <text x="84" y="126" fill="#A7B1B9" font-family="Inter, Segoe UI, Arial, sans-serif" font-size="12">diagnostic, Wi-Fi, OSINT, security, and utility tools</text>
    <rect x="20" y="143" width="92" height="20" rx="10" fill="#78A58F" fill-opacity="0.14"/>
    <text x="66" y="157" text-anchor="middle" fill="#C5DAD1" font-family="Inter, Segoe UI, Arial, sans-serif" font-size="8.5">REACT NATIVE</text>
    <rect x="120" y="143" width="58" height="20" rx="10" fill="#78A58F" fill-opacity="0.14"/>
    <text x="149" y="157" text-anchor="middle" fill="#C5DAD1" font-family="Inter, Segoe UI, Arial, sans-serif" font-size="8.5">EXPO</text>
    <rect x="186" y="143" width="78" height="20" rx="10" fill="#78A58F" fill-opacity="0.14"/>
    <text x="225" y="157" text-anchor="middle" fill="#C5DAD1" font-family="Inter, Segoe UI, Arial, sans-serif" font-size="8.5">TYPESCRIPT</text>
    <g transform="translate(432 95)">
      <rect width="72" height="64" rx="12" fill="#0E151B" stroke="#2F3B44"/>
      <rect x="11" y="9" width="50" height="46" rx="8" fill="#18232B"/>
      <circle cx="36" cy="19" r="4" fill="#78A58F"/>
      <path d="M20 34H52M20 43H44" stroke="#8B97A1" stroke-width="3" stroke-linecap="round"/>
    </g>
  </g>

  <g transform="translate(614 82)" filter="url(#shadow)">
    <rect width="542" height="178" rx="20" fill="#141D26" stroke="#35414B"/>
    <rect x="20" y="20" width="58" height="58" rx="14" fill="#2A2118" stroke="#D8AE68" stroke-opacity="0.68"/>
    <path d="M35 51C43 35 51 35 63 51M39 43C46 29 55 29 59 43" stroke="#E4C58E" stroke-width="2.3" stroke-linecap="round"/>
    <circle cx="49" cy="56" r="3" fill="#E4C58E"/>
    <text x="96" y="33" fill="#D8AE68" font-family="ui-monospace, SFMono-Regular, Menlo, Monaco, Consolas, monospace" font-size="9.5" letter-spacing="1.2">02 / FULL-STACK AI SAAS</text>
    <text x="96" y="63" fill="#F3F0E8" font-family="Inter, Segoe UI, Arial, sans-serif" font-size="23" font-weight="760">PrepWithAI</text>
    <text x="96" y="86" fill="#8C98A2" font-family="Inter, Segoe UI, Arial, sans-serif" font-size="11.5">Interview practice, evaluation, reports, and coaching</text>
    <text x="20" y="122" fill="#F3F0E8" font-family="Inter, Segoe UI, Arial, sans-serif" font-size="18" font-weight="720">Groq + Llama 3.3 70B</text>
    <text x="20" y="140" fill="#8C98A2" font-family="Inter, Segoe UI, Arial, sans-serif" font-size="9.5">Retry logic · streaming · usage tracking · calibrated feedback</text>
    <rect x="20" y="149" width="76" height="20" rx="10" fill="#D8AE68" fill-opacity="0.13"/>
    <text x="58" y="163" text-anchor="middle" fill="#E1CAA0" font-family="Inter, Segoe UI, Arial, sans-serif" font-size="8.5">NEXT.JS</text>
    <rect x="104" y="149" width="72" height="20" rx="10" fill="#D8AE68" fill-opacity="0.13"/>
    <text x="140" y="163" text-anchor="middle" fill="#E1CAA0" font-family="Inter, Segoe UI, Arial, sans-serif" font-size="8.5">MONGODB</text>
    <rect x="184" y="149" width="62" height="20" rx="10" fill="#D8AE68" fill-opacity="0.13"/>
    <text x="215" y="163" text-anchor="middle" fill="#E1CAA0" font-family="Inter, Segoe UI, Arial, sans-serif" font-size="8.5">STRIPE</text>
    <g transform="translate(426 105)">
      <path d="M0 30C20 4 35 24 50 7C64 -8 80 20 96 0" stroke="#D8AE68" stroke-width="2.4" fill="none"/>
      <circle cx="96" cy="0" r="4" fill="#D8AE68"/>
      <path d="M0 43H96" stroke="#2F3A44"/>
    </g>
  </g>

  <g transform="translate(44 288)" filter="url(#shadow)">
    <rect width="542" height="178" rx="20" fill="#141D26" stroke="#35414B"/>
    <rect x="20" y="20" width="58" height="58" rx="14" fill="#231E2B" stroke="#A88ED2" stroke-opacity="0.65"/>
    <path d="M36 33H62V62H36V33ZM42 28H56" stroke="#C9B8E8" stroke-width="2.2" stroke-linejoin="round"/>
    <path d="M42 43H56M42 51H54" stroke="#C9B8E8" stroke-width="2" stroke-linecap="round"/>
    <text x="96" y="33" fill="#A88ED2" font-family="ui-monospace, SFMono-Regular, Menlo, Monaco, Consolas, monospace" font-size="9.5" letter-spacing="1.2">03 / AI CAREER TOOLKIT</text>
    <text x="96" y="63" fill="#F3F0E8" font-family="Inter, Segoe UI, Arial, sans-serif" font-size="23" font-weight="760">ResumaBuilder</text>
    <text x="96" y="86" fill="#8C98A2" font-family="Inter, Segoe UI, Arial, sans-serif" font-size="11.5">Resume building, ATS analysis, content, and job matching</text>
    <text x="20" y="126" fill="#F3F0E8" font-family="Inter, Segoe UI, Arial, sans-serif" font-size="34" font-weight="760">294+</text>
    <text x="95" y="126" fill="#A7B1B9" font-family="Inter, Segoe UI, Arial, sans-serif" font-size="12">ATS-ready templates with Google Gemini integration</text>
    <rect x="20" y="143" width="82" height="20" rx="10" fill="#A88ED2" fill-opacity="0.13"/>
    <text x="61" y="157" text-anchor="middle" fill="#D2C3E8" font-family="Inter, Segoe UI, Arial, sans-serif" font-size="8.5">GEMINI</text>
    <rect x="110" y="143" width="96" height="20" rx="10" fill="#A88ED2" fill-opacity="0.13"/>
    <text x="158" y="157" text-anchor="middle" fill="#D2C3E8" font-family="Inter, Segoe UI, Arial, sans-serif" font-size="8.5">FLASH + PRO</text>
    <rect x="214" y="143" width="74" height="20" rx="10" fill="#A88ED2" fill-opacity="0.13"/>
    <text x="251" y="157" text-anchor="middle" fill="#D2C3E8" font-family="Inter, Segoe UI, Arial, sans-serif" font-size="8.5">EXPORTS</text>
    <g transform="translate(434 94)">
      <rect width="74" height="66" rx="12" fill="#0E151B" stroke="#2F3A44"/>
      <path d="M20 18H54M20 28H50M20 38H45M20 48H40" stroke="#A88ED2" stroke-width="3" stroke-linecap="round"/>
    </g>
  </g>

  <g transform="translate(614 288)" filter="url(#shadow)">
    <rect width="542" height="178" rx="20" fill="#141D26" stroke="#35414B"/>
    <rect x="20" y="20" width="58" height="58" rx="14" fill="#251B19" stroke="#D98272" stroke-opacity="0.65"/>
    <rect x="33" y="32" width="32" height="22" rx="4" stroke="#E6A499" stroke-width="2.2"/>
    <path d="M40 62H58M49 54V62" stroke="#E6A499" stroke-width="2.2" stroke-linecap="round"/>
    <text x="96" y="33" fill="#D98272" font-family="ui-monospace, SFMono-Regular, Menlo, Monaco, Consolas, monospace" font-size="9.5" letter-spacing="1.2">04 / MULTI-PLATFORM TV SYSTEM</text>
    <text x="96" y="63" fill="#F3F0E8" font-family="Inter, Segoe UI, Arial, sans-serif" font-size="23" font-weight="760">Vievio</text>
    <text x="96" y="86" fill="#8C98A2" font-family="Inter, Segoe UI, Arial, sans-serif" font-size="11.5">IPTV clients, provider infrastructure, and operations</text>
    <text x="20" y="126" fill="#F3F0E8" font-family="Inter, Segoe UI, Arial, sans-serif" font-size="34" font-weight="760">5</text>
    <text x="45" y="126" fill="#A7B1B9" font-family="Inter, Segoe UI, Arial, sans-serif" font-size="12">delivery surfaces: web, mobile, Android TV, Tizen, webOS</text>
    <rect x="20" y="143" width="70" height="20" rx="10" fill="#D98272" fill-opacity="0.13"/>
    <text x="55" y="157" text-anchor="middle" fill="#E7B5AD" font-family="Inter, Segoe UI, Arial, sans-serif" font-size="8.5">TIZEN</text>
    <rect x="98" y="143" width="70" height="20" rx="10" fill="#D98272" fill-opacity="0.13"/>
    <text x="133" y="157" text-anchor="middle" fill="#E7B5AD" font-family="Inter, Segoe UI, Arial, sans-serif" font-size="8.5">WEBOS</text>
    <rect x="176" y="143" width="96" height="20" rx="10" fill="#D98272" fill-opacity="0.13"/>
    <text x="224" y="157" text-anchor="middle" fill="#E7B5AD" font-family="Inter, Segoe UI, Arial, sans-serif" font-size="8.5">ANDROID TV</text>
    <g transform="translate(426 102)">
      <rect width="86" height="50" rx="9" fill="#0E151B" stroke="#2F3A44"/>
      <rect x="10" y="10" width="66" height="30" rx="5" fill="#19242C"/>
      <circle cx="23" cy="25" r="5" fill="#D98272"/>
      <path d="M34 21H65M34 28H58" stroke="#8C98A2" stroke-width="3" stroke-linecap="round"/>
    </g>
  </g>

  <text x="44" y="496" fill="#7C8790" font-family="ui-monospace, SFMono-Regular, Menlo, Monaco, Consolas, monospace" font-size="9" letter-spacing="1.1">PUBLIC PRODUCTS · PRIVATE COMMERCIAL SYSTEMS · VERIFIED AI INTEGRATIONS</text>
  <text x="1156" y="496" text-anchor="end" fill="#78A58F" font-family="ui-monospace, SFMono-Regular, Menlo, Monaco, Consolas, monospace" font-size="9" letter-spacing="1.2">PRODUCTS OVER PROMISES</text>
</svg>