<svg width="1200" height="360" viewBox="0 0 1200 360" fill="none" xmlns="http://www.w3.org/2000/svg">
  <defs>
    <linearGradient id="bg" x1="48" y1="22" x2="1120" y2="340" gradientUnits="userSpaceOnUse">
      <stop stop-color="#111315"/>
      <stop offset="0.56" stop-color="#1A1E21"/>
      <stop offset="1" stop-color="#0C0E10"/>
    </linearGradient>
    <linearGradient id="metal" x1="744" y1="58" x2="1088" y2="306" gradientUnits="userSpaceOnUse">
      <stop stop-color="#2B3035"/>
      <stop offset="1" stop-color="#15181B"/>
    </linearGradient>
    <linearGradient id="accent" x1="110" y1="0" x2="650" y2="0" gradientUnits="userSpaceOnUse">
      <stop stop-color="#F3B647"/>
      <stop offset="1" stop-color="#C98222"/>
    </linearGradient>
    <pattern id="grid" width="34" height="34" patternUnits="userSpaceOnUse">
      <path d="M 34 0 L 0 0 0 34" fill="none" stroke="#FFFFFF" stroke-opacity="0.035" stroke-width="1"/>
    </pattern>
    <filter id="shadow" x="-20%" y="-20%" width="140%" height="140%">
      <feDropShadow dx="0" dy="10" stdDeviation="15" flood-color="#000000" flood-opacity="0.45"/>
    </filter>
  </defs>

  <rect width="1200" height="360" rx="24" fill="url(#bg)"/>
  <rect width="1200" height="360" rx="24" fill="url(#grid)"/>
  <path d="M0 314H1200" stroke="#FFFFFF" stroke-opacity="0.08"/>
  <path d="M78 64H622" stroke="url(#accent)" stroke-width="4" stroke-linecap="round"/>
  <path d="M78 72H282" stroke="#F3B647" stroke-opacity="0.28" stroke-width="1"/>

  <g opacity="0.62">
    <path d="M688 80H805L847 122H1002" stroke="#F3B647" stroke-opacity="0.42" stroke-width="1.5"/>
    <circle cx="688" cy="80" r="4" fill="#F3B647"/>
    <circle cx="1002" cy="122" r="4" fill="#F3B647"/>
    <path d="M724 278H832L870 240H1096" stroke="#FFFFFF" stroke-opacity="0.13" stroke-width="1.5"/>
    <circle cx="724" cy="278" r="4" fill="#FFFFFF" fill-opacity="0.42"/>
    <circle cx="1096" cy="240" r="4" fill="#FFFFFF" fill-opacity="0.42"/>
  </g>

  <g filter="url(#shadow)">
    <rect x="796" y="54" width="286" height="252" rx="26" fill="url(#metal)" stroke="#FFFFFF" stroke-opacity="0.08"/>
    <rect x="816" y="74" width="246" height="212" rx="18" stroke="#F3B647" stroke-opacity="0.32"/>
    <path d="M852 235L920 106H958L1026 235H987L971 202H906L890 235H852ZM920 170H957L938 129L920 170Z" fill="#F3B647"/>
    <path d="M906 246H972" stroke="#FFFFFF" stroke-opacity="0.56" stroke-width="5" stroke-linecap="round"/>
  </g>

  <text x="78" y="122" fill="#F5F2EA" font-family="Inter, Segoe UI, Arial, sans-serif" font-size="55" font-weight="750" letter-spacing="1.5">ABDULLAH TARIQ</text>
  <text x="80" y="166" fill="#F3B647" font-family="Inter, Segoe UI, Arial, sans-serif" font-size="22" font-weight="700" letter-spacing="5">SOFTWARE DEVELOPER</text>
  <text x="80" y="211" fill="#CDD1D4" font-family="Inter, Segoe UI, Arial, sans-serif" font-size="20" font-weight="500">Full-Stack  •  Mobile  •  AI-Integrated Products  •  TV Platforms</text>
  <text x="80" y="248" fill="#8F979D" font-family="Inter, Segoe UI, Arial, sans-serif" font-size="16" font-weight="500">Lahore, Pakistan  /  International software technology background</text>

  <g transform="translate(80 276)">
    <rect width="415" height="40" rx="8" fill="#F3B647" fill-opacity="0.1" stroke="#F3B647" stroke-opacity="0.55"/>
    <circle cx="21" cy="20" r="5" fill="#F3B647"/>
    <text x="37" y="26" fill="#F5F2EA" font-family="Inter, Segoe UI, Arial, sans-serif" font-size="14" font-weight="700" letter-spacing="1">OPEN TO SOFTWARE ENGINEERING OPPORTUNITIES</text>
  </g>

  <text x="1120" y="332" text-anchor="end" fill="#FFFFFF" fill-opacity="0.22" font-family="Inter, Segoe UI, Arial, sans-serif" font-size="12" letter-spacing="2">BUILD • SHIP • IMPROVE</text>
</svg>