<svg xmlns="http://www.w3.org/2000/svg" width="1200" height="300" viewBox="0 0 1200 300" role="img" aria-label="Abdullah Tariq technology stack">
  <rect width="1200" height="300" rx="24" fill="#0F1412"/>
  <rect x="1" y="1" width="1198" height="298" rx="23" fill="none" stroke="#354238"/>
  <text x="48" y="50" fill="#D7C8A8" font-family="ui-monospace,Consolas,monospace" font-size="13" letter-spacing="2">ENGINEERING TOOLKIT</text>
  <text x="48" y="82" fill="#F5F1E8" font-family="Inter,Segoe UI,Arial,sans-serif" font-size="26" font-weight="700">Technologies connected to shipped product work</text>
  <g font-family="Inter,Segoe UI,Arial,sans-serif" font-size="14" font-weight="650">
    <g transform="translate(48 118)">
      <rect width="118" height="46" rx="12" fill="#18201B" stroke="#7A8F5B"/><text x="59" y="29" text-anchor="middle" fill="#F5F1E8">TypeScript</text>
      <rect x="132" width="100" height="46" rx="12" fill="#18201B" stroke="#7A8F5B"/><text x="182" y="29" text-anchor="middle" fill="#F5F1E8">React</text>
      <rect x="246" width="104" height="46" rx="12" fill="#18201B" stroke="#7A8F5B"/><text x="298" y="29" text-anchor="middle" fill="#F5F1E8">Next.js</text>
      <rect x="364" width="126" height="46" rx="12" fill="#18201B" stroke="#7A8F5B"/><text x="427" y="29" text-anchor="middle" fill="#F5F1E8">React Native</text>
      <rect x="504" width="96" height="46" rx="12" fill="#18201B" stroke="#7A8F5B"/><text x="552" y="29" text-anchor="middle" fill="#F5F1E8">Expo</text>
      <rect x="614" width="104" height="46" rx="12" fill="#18201B" stroke="#7A8F5B"/><text x="666" y="29" text-anchor="middle" fill="#F5F1E8">Android</text>
      <rect x="732" width="92" height="46" rx="12" fill="#18201B" stroke="#7A8F5B"/><text x="778" y="29" text-anchor="middle" fill="#F5F1E8">Java</text>
      <rect x="838" width="120" height="46" rx="12" fill="#18201B" stroke="#7A8F5B"/><text x="898" y="29" text-anchor="middle" fill="#F5F1E8">Spring Boot</text>
      <rect x="972" width="132" height="46" rx="12" fill="#18201B" stroke="#7A8F5B"/><text x="1038" y="29" text-anchor="middle" fill="#F5F1E8">PostgreSQL</text>
    </g>
    <g transform="translate(48 180)">
      <rect width="118" height="46" rx="12" fill="#171613" stroke="#B58B4C"/><text x="59" y="29" text-anchor="middle" fill="#F5F1E8">MongoDB</text>
      <rect x="132" width="96" height="46" rx="12" fill="#171613" stroke="#B58B4C"/><text x="180" y="29" text-anchor="middle" fill="#F5F1E8">Redis</text>
      <rect x="242" width="92" height="46" rx="12" fill="#171613" stroke="#B58B4C"/><text x="288" y="29" text-anchor="middle" fill="#F5F1E8">SQLite</text>
      <rect x="348" width="112" height="46" rx="12" fill="#171613" stroke="#B58B4C"/><text x="404" y="29" text-anchor="middle" fill="#F5F1E8">Gemini</text>
      <rect x="474" width="96" height="46" rx="12" fill="#171613" stroke="#B58B4C"/><text x="522" y="29" text-anchor="middle" fill="#F5F1E8">Groq</text>
      <rect x="584" width="94" height="46" rx="12" fill="#171613" stroke="#B58B4C"/><text x="631" y="29" text-anchor="middle" fill="#F5F1E8">Tizen</text>
      <rect x="692" width="104" height="46" rx="12" fill="#171613" stroke="#B58B4C"/><text x="744" y="29" text-anchor="middle" fill="#F5F1E8">webOS</text>
      <rect x="810" width="118" height="46" rx="12" fill="#171613" stroke="#B58B4C"/><text x="869" y="29" text-anchor="middle" fill="#F5F1E8">Docker</text>
      <rect x="942" width="112" height="46" rx="12" fill="#171613" stroke="#B58B4C"/><text x="998" y="29" text-anchor="middle" fill="#F5F1E8">GitHub</text>
    </g>
  </g>
  <text x="48" y="270" fill="#8B949E" font-family="ui-monospace,Consolas,monospace" font-size="11" letter-spacing="1.1">WEB · MOBILE · BACKEND · AI · DATA · TELEVISION · DELIVERY</text>
</svg>